<svg width="300" height="300" viewBox="0 0 300 300" fill="none" xmlns="http://www.w3.org/2000/svg">
<rect width="300" height="300" fill="#1E1E1E"/>
<path d="M280.714 105.991V242.468C280.714 258.632 273.386 273.354 260.632 282.878C252.124 289.239 242.107 292.534 231.91 292.534C227.336 292.534 222.73 291.862 218.205 290.534L149.991 270.321L129.565 264.272L54.564 242.042C45.121 239.255 36.941 233.616 30.875 226.255V193.992C30.875 211.041 41.973 226.222 57.875 230.927L149.991 258.222L170.417 264.271L221.499 279.402C232.614 282.697 244.352 280.566 253.68 273.582C263.5 266.271 269.106 254.926 269.106 242.467V105.991C269.106 88.958 258.007 73.778 242.106 69.056L149.99 41.777L129.564 35.728L78.499 20.596C75.056 19.58 71.565 19.071 68.106 19.071C60.368 19.071 52.762 21.579 46.302 26.399C36.499 33.727 30.876 45.071 30.876 57.53V73.727C23.581 82.563 19.286 93.924 19.286 105.99V57.531C19.286 41.367 26.598 26.629 39.352 17.104C51.679 7.90801 67.139 5.13701 81.794 9.46501L149.991 29.678L170.417 35.727L245.401 57.924C254.877 60.727 263.041 66.367 269.106 73.744C276.403 82.581 280.714 93.941 280.714 105.991Z" fill="#EE6100"/>
<path d="M269.108 193.991V226.237C263.042 233.614 254.878 239.254 245.403 242.04L170.419 264.27L149.993 258.221L242.109 230.926C258.009 226.221 269.108 211.041 269.108 193.991Z" fill="#F5A066"/>
<path d="M280.714 57.531V105.99C280.714 93.941 276.403 82.58 269.107 73.744V57.531C269.107 45.072 263.5 33.727 253.681 26.4C247.238 21.58 239.632 19.072 231.878 19.072C228.419 19.072 224.944 19.58 221.501 20.597L170.419 35.728L149.993 29.679L218.207 9.46601C232.863 5.13801 248.322 7.90901 260.634 17.105C273.386 26.629 280.714 41.367 280.714 57.531Z" fill="#F5A066"/>
<path d="M129.565 264.271L149.991 270.32L81.794 290.533C77.253 291.861 72.646 292.533 68.073 292.533C57.86 292.533 47.86 289.238 39.351 282.877C26.597 273.352 19.285 258.631 19.285 242.467V105.991C19.285 93.925 23.58 82.565 30.875 73.728C36.941 66.367 45.121 60.728 54.564 57.925L129.565 35.728L149.991 41.777L57.876 69.056C41.974 73.777 30.876 88.958 30.876 105.991V242.468C30.876 254.927 36.499 266.272 46.302 273.583C55.646 280.567 67.384 282.698 78.499 279.403L129.565 264.271Z" fill="#F5A066"/>
<path d="M149.992 229.577L130.189 236.437C127.12 237.5 123.918 235.221 123.918 231.973L123.917 193.799C123.917 191.786 125.193 189.994 127.095 189.335L149.992 181.403" fill="#EE6100"/>
<path d="M149.992 229.577L169.796 236.437C172.865 237.5 176.067 235.221 176.067 231.973V193.799C176.067 191.786 174.791 189.994 172.889 189.335L149.992 181.403V229.577Z" fill="#F9C6A3"/>
<path d="M149.995 113.737L106.6 128.77C103.644 129.794 100.528 127.715 100.338 124.593L98.063 87.207C97.934 85.092 99.23 83.15 101.232 82.456L149.995 65.564" fill="#EE6100"/>
<path d="M149.995 65.563L251.116 100.592C253.018 101.251 254.294 103.043 254.294 105.056L254.295 143.23C254.295 146.478 251.093 148.757 248.024 147.694L149.995 113.736V65.563Z" fill="#F9C6A3"/>
<path d="M149.992 172.985L193.387 188.017C196.343 189.041 199.459 186.962 199.649 183.84L201.924 146.454C202.053 144.339 200.757 142.397 198.755 141.703L149.992 124.811" fill="#F9C6A3"/>
<path d="M149.992 172.985L51.963 206.943C48.894 208.006 45.692 205.727 45.692 202.479L45.693 164.305C45.693 162.292 46.969 160.5 48.871 159.841L149.992 124.812V172.985Z" fill="#EE6100"/>
</svg>
