<svg id="Layer_1" data-name="Layer 1" xmlns="http://www.w3.org/2000/svg" viewBox="0 0 84.98 68.87"><defs><style>.cls-1{fill:none;stroke:#ee6100;stroke-linecap:round;stroke-miterlimit:10;stroke-width:2px;}.cls-2{fill:#f5a066;}.cls-3{fill:#ad4700;}</style></defs><g id="Brush"><path class="cls-1" d="M37.27,45C21.6,45,23.85,63,11.56,63a12,12,0,0,1-7.72-2.57s4,18,23.15,18c14.27,0,25.72-5.89,25.72-18A15.33,15.33,0,0,0,37.27,45Z" transform="translate(-2.18 -10.57)"/></g><g id="Paint"><path class="cls-2" d="M16.72,70.72C25.79,70.72,27,63,27,63c-2.77,2.8-7.72,2.57-7.72,2.57,2.13-2.12,2.54-7.75,2.61-9.66C19.42,59.69,16.83,63,11.56,63a12,12,0,0,1-7.72-2.57S7.14,75,21.77,77.9A12.63,12.63,0,0,0,27,73.29,11.87,11.87,0,0,1,16.72,70.72Z" transform="translate(-2.18 -10.57)"/></g><g id="Tube"><polygon class="cls-3" points="45.41 24.15 37.69 37.01 47.98 47.29 60.84 39.58 45.41 24.15"/></g><g id="Handle"><path class="cls-1" d="M68.16,11.57c-7.72,0-20.58,23.14-20.58,23.14L63,50.14S86.16,37.28,86.16,29.57C86.16,27,70.73,11.57,68.16,11.57Z" transform="translate(-2.18 -10.57)"/></g></svg>